<?xml version="1.0" encoding="UTF-8" standalone="no"?><!DOCTYPE svg PUBLIC "-//W3C//DTD SVG 1.1//EN" "http://www.w3.org/Graphics/SVG/1.1/DTD/svg11.dtd"><!-- Generated by graphviz version 2.40.1 (20161225.0304)
 --><!-- Title: %0 Pages: 1 --><svg xmlns="http://www.w3.org/2000/svg" xmlns:xlink="http://www.w3.org/1999/xlink" width="507pt" height="462pt" viewBox="0.00 0.00 507.00 462.40">
<g id="graph0" class="graph" transform="scale(1 1) rotate(0) translate(4 458.4)">
<title>%0</title>
<polygon fill="#ffffff" stroke="transparent" points="-4,4 -4,-458.4 503,-458.4 503,4 -4,4"/>
<g id="clust1" class="cluster">
<title>cluster-if-L51C3</title>
<polygon fill="none" stroke="#000000" points="259,-199.1 259,-338.4 491,-338.4 491,-199.1 259,-199.1"/>
<text text-anchor="middle" x="375" y="-321.8" font-family="Roboto" font-size="14.00" fill="#000000">if(!defined(cohort_samples))</text>
</g>
<g id="clust2" class="cluster">
<title>cluster-scatter-L58C5-sample</title>
<polygon fill="none" stroke="#000000" points="267,-207.1 267,-248.9 483,-248.9 483,-207.1 267,-207.1"/>
<text text-anchor="middle" x="375" y="-232.3" font-family="Roboto" font-size="14.00" fill="#000000">scatter(read_sample_sheet.samples)</text>
</g>
<g id="clust3" class="cluster">
<title>cluster-if-L68C3</title>
<polygon fill="none" stroke="#000000" points="8,-261.6 8,-338.4 153,-338.4 153,-261.6 8,-261.6"/>
<text text-anchor="middle" x="80.5" y="-321.8" font-family="Roboto" font-size="14.00" fill="#000000">if(length(samples) &gt; 1)</text>
</g>
<g id="clust4" class="cluster">
<title>cluster-if-L83C3</title>
<polygon fill="none" stroke="#000000" points="31,-8 31,-189.6 228,-189.6 228,-8 31,-8"/>
<text text-anchor="middle" x="129.5" y="-173" font-family="Roboto" font-size="14.00" fill="#000000">if(length(qc_pass_samples) &gt; 1)</text>
</g>
<g id="clust5" class="cluster">
<title>cluster-scatter-L85C5-qc_pass_sample</title>
<polygon fill="none" stroke="#000000" points="50,-80 50,-156.8 220,-156.8 220,-80 50,-80"/>
<text text-anchor="middle" x="135" y="-140.2" font-family="Roboto" font-size="14.00" fill="#000000">scatter(qc_pass_samples)</text>
</g>
<!-- call&#45;backend_configuration -->
<g id="node1" class="node">
<title>call-backend_configuration</title>
<polygon fill="none" stroke="#000000" points="262.566,-448.4 129.434,-448.4 129.434,-424.4 262.566,-424.4 274.566,-436.4 262.566,-448.4"/>
<text text-anchor="middle" x="202" y="-432.2" font-family="Roboto" font-size="14.00" fill="#000000">backend_configuration</text>
</g>
<!-- decl&#45;default_runtime_attributes -->
<g id="node2" class="node">
<title>decl-default_runtime_attributes</title>
<text text-anchor="middle" x="202" y="-360.2" font-family="Roboto" font-size="14.00" fill="#000000">default_runtime_attributes</text>
</g>
<!-- call&#45;backend_configuration&#45;&gt;decl&#45;default_runtime_attributes -->
<g id="edge1" class="edge">
<title>call-backend_configuration-&gt;decl-default_runtime_attributes</title>
<path fill="none" stroke="#000000" stroke-opacity="0.501961" d="M202,-418.2314C202,-410.531 202,-401.3743 202,-392.8166"/>
<polygon fill="#000000" fill-opacity="0.501961" stroke="#000000" stroke-opacity="0.501961" points="205.5001,-392.8132 202,-382.8133 198.5001,-392.8133 205.5001,-392.8132"/>
</g>
<!-- call&#45;read_sample_sheet -->
<g id="node3" class="node">
<title>call-read_sample_sheet</title>
<polygon fill="none" stroke="#000000" points="398.0102,-299.6 287.9898,-299.6 287.9898,-275.6 398.0102,-275.6 410.0102,-287.6 398.0102,-299.6"/>
<text text-anchor="middle" x="349" y="-283.4" font-family="Roboto" font-size="14.00" fill="#000000">read_sample_sheet</text>
</g>
<!-- decl&#45;default_runtime_attributes&#45;&gt;call&#45;read_sample_sheet -->
<g id="edge2" class="edge">
<title>decl-default_runtime_attributes-&gt;call-read_sample_sheet</title>
<path fill="none" stroke="#000000" stroke-opacity="0.501961" d="M261.6093,-346.301C267.5894,-343.8862 273.4839,-341.2487 279,-338.4 293.2005,-331.0664 307.6933,-321.0494 319.7805,-311.8481"/>
<polygon fill="#000000" fill-opacity="0.501961" stroke="#000000" stroke-opacity="0.501961" points="321.9955,-314.5593 327.7312,-305.6513 317.6922,-309.0382 321.9955,-314.5593"/>
</g>
<!-- call&#45;cohort_align_qc -->
<g id="node7" class="node">
<title>call-cohort_align_qc</title>
<polygon fill="none" stroke="#000000" points="131.4762,-299.6 36.5238,-299.6 36.5238,-275.6 131.4762,-275.6 143.4762,-287.6 131.4762,-299.6"/>
<text text-anchor="middle" x="90" y="-283.4" font-family="Roboto" font-size="14.00" fill="#000000">cohort_align_qc</text>
</g>
<!-- decl&#45;default_runtime_attributes&#45;&gt;call&#45;cohort_align_qc -->
<g id="edge5" class="edge">
<title>decl-default_runtime_attributes-&gt;call-cohort_align_qc</title>
<path fill="none" stroke="#000000" stroke-opacity="0.501961" d="M170.4955,-346.3443C166.2506,-343.749 161.9875,-341.0564 158,-338.4 145.5655,-330.1164 132.3139,-320.4258 120.8431,-311.7421"/>
<polygon fill="#000000" fill-opacity="0.501961" stroke="#000000" stroke-opacity="0.501961" points="122.914,-308.9198 112.8423,-305.6315 118.6651,-314.4828 122.914,-308.9198"/>
</g>
<!-- call&#45;sample_call_variants -->
<g id="node10" class="node">
<title>call-sample_call_variants</title>
<polygon fill="none" stroke="#000000" points="200.1811,-118 77.8189,-118 77.8189,-94 200.1811,-94 212.1811,-106 200.1811,-118"/>
<text text-anchor="middle" x="145" y="-101.8" font-family="Roboto" font-size="14.00" fill="#000000">sample_call_variants</text>
</g>
<!-- decl&#45;default_runtime_attributes&#45;&gt;call&#45;sample_call_variants -->
<g id="edge10" class="edge">
<title>decl-default_runtime_attributes-&gt;call-sample_call_variants</title>
<path fill="none" stroke="#000000" stroke-opacity="0.501961" d="M197.9919,-346.2298C188.1803,-301.7506 162.9034,-187.1621 151.1628,-133.9378"/>
<polygon fill="#000000" fill-opacity="0.501961" stroke="#000000" stroke-opacity="0.501961" points="154.5757,-133.1614 149.0037,-124.1501 147.74,-134.6693 154.5757,-133.1614"/>
</g>
<!-- call&#45;cohort_combine_samples -->
<g id="node12" class="node">
<title>call-cohort_combine_samples</title>
<polygon fill="none" stroke="#000000" points="207.5758,-46 60.4242,-46 60.4242,-22 207.5758,-22 219.5758,-34 207.5758,-46"/>
<text text-anchor="middle" x="140" y="-29.8" font-family="Roboto" font-size="14.00" fill="#000000">cohort_combine_samples</text>
</g>
<!-- decl&#45;default_runtime_attributes&#45;&gt;call&#45;cohort_combine_samples -->
<g id="edge11" class="edge">
<title>decl-default_runtime_attributes-&gt;call-cohort_combine_samples</title>
<path fill="none" stroke="#000000" stroke-opacity="0.501961" d="M210.1411,-346.135C230.068,-298.4393 276.0026,-167.7671 224,-80 218.6048,-70.8943 210.699,-63.4728 201.8647,-57.461"/>
<polygon fill="#000000" fill-opacity="0.501961" stroke="#000000" stroke-opacity="0.501961" points="203.5155,-54.3675 193.1618,-52.12 199.8541,-60.3336 203.5155,-54.3675"/>
</g>
<!-- scatter&#45;L58C5&#45;sample -->
<!-- call&#45;read_sample_sheet&#45;&gt;scatter&#45;L58C5&#45;sample -->
<g id="edge3" class="edge">
<title>call-read_sample_sheet-&gt;scatter-L58C5-sample</title>
<path fill="none" stroke="#000000" stroke-opacity="0.501961" d="M349,-269.4314C349,-266.2082 349,-262.73 349,-259.1474"/>
<polygon fill="#000000" fill-opacity="0.501961" stroke="#000000" stroke-opacity="0.501961" points="352.5001,-258.8992 349,-248.8993 345.5001,-258.8993 352.5001,-258.8992"/>
</g>
<!-- if&#45;L51C3 -->
<!-- decl&#45;samples -->
<g id="node6" class="node">
<title>decl-samples</title>
<text text-anchor="middle" x="60" y="-360.2" font-family="Roboto" font-size="14.00" fill="#000000">samples</text>
</g>
<!-- decl&#45;samples&#45;&gt;call&#45;cohort_align_qc -->
<g id="edge6" class="edge">
<title>decl-samples-&gt;call-cohort_align_qc</title>
<path fill="none" stroke="#000000" stroke-opacity="0.501961" d="M67.1096,-346.1995C70.7336,-336.9219 75.2167,-325.4453 79.2522,-315.1144"/>
<polygon fill="#000000" fill-opacity="0.501961" stroke="#000000" stroke-opacity="0.501961" points="82.563,-316.258 82.9415,-305.6699 76.0428,-313.711 82.563,-316.258"/>
</g>
<!-- if&#45;L68C3 -->
<!-- decl&#45;samples&#45;&gt;if&#45;L68C3 -->
<g id="edge4" class="edge">
<title>decl-samples-&gt;if-L68C3</title>
<path fill="none" stroke="#000000" stroke-opacity="0.501961" d="M34.154,-346.3133C34.0079,-346.1605 33.8627,-346.0069 33.7184,-345.8526"/>
<polygon fill="#000000" fill-opacity="0.501961" stroke="#000000" stroke-opacity="0.501961" points="36.8643,-344.203 28,-338.4 31.3108,-348.4643 36.8643,-344.203"/>
</g>
<!-- decl&#45;qc_pass_samples -->
<g id="node9" class="node">
<title>decl-qc_pass_samples</title>
<text text-anchor="middle" x="59" y="-211.4" font-family="Roboto" font-size="14.00" fill="#000000">qc_pass_samples</text>
</g>
<!-- call&#45;cohort_align_qc&#45;&gt;decl&#45;qc_pass_samples -->
<g id="edge7" class="edge">
<title>call-cohort_align_qc-&gt;decl-qc_pass_samples</title>
<path fill="none" stroke="#000000" stroke-opacity="0.501961" d="M82.1774,-269.4314C78.7891,-261.5617 74.7459,-252.1712 70.9924,-243.4533"/>
<polygon fill="#000000" fill-opacity="0.501961" stroke="#000000" stroke-opacity="0.501961" points="74.0973,-241.814 66.9279,-234.0133 67.6679,-244.5822 74.0973,-241.814"/>
</g>
<!-- scatter&#45;L85C5&#45;qc_pass_sample -->
<!-- decl&#45;qc_pass_samples&#45;&gt;scatter&#45;L85C5&#45;qc_pass_sample -->
<g id="edge9" class="edge">
<title>decl-qc_pass_samples-&gt;scatter-L85C5-qc_pass_sample</title>
<path fill="none" stroke="#000000" stroke-opacity="0.501961" d="M59,-197.5018C59,-188.9425 59,-178.1725 59,-167.0545"/>
<polygon fill="#000000" fill-opacity="0.501961" stroke="#000000" stroke-opacity="0.501961" points="62.5001,-166.7996 59,-156.7997 55.5001,-166.7997 62.5001,-166.7996"/>
</g>
<!-- if&#45;L83C3 -->
<!-- decl&#45;qc_pass_samples&#45;&gt;if&#45;L83C3 -->
<g id="edge8" class="edge">
<title>decl-qc_pass_samples-&gt;if-L83C3</title>
<path fill="none" stroke="#000000" stroke-opacity="0.501961" d="M48.8375,-197.4916C48.7674,-197.3299 48.6978,-197.1679 48.6287,-197.0055"/>
<polygon fill="#000000" fill-opacity="0.501961" stroke="#000000" stroke-opacity="0.501961" points="52.6436,-197.8531 46,-189.6 46.0468,-200.1947 52.6436,-197.8531"/>
</g>
<!-- call&#45;sample_call_variants&#45;&gt;call&#45;cohort_combine_samples -->
<g id="edge12" class="edge">
<title>call-sample_call_variants-&gt;call-cohort_combine_samples</title>
<path fill="none" stroke="#000000" stroke-opacity="0.501961" d="M143.7383,-87.8314C143.2035,-80.131 142.5677,-70.9743 141.9734,-62.4166"/>
<polygon fill="#000000" fill-opacity="0.501961" stroke="#000000" stroke-opacity="0.501961" points="145.4632,-62.1467 141.2787,-52.4133 138.48,-62.6317 145.4632,-62.1467"/>
</g>
</g>
</svg>